<?xml version="1.0" standalone="no"?><!DOCTYPE svg PUBLIC "-//W3C//DTD SVG 1.1//EN" "http://www.w3.org/Graphics/SVG/1.1/DTD/svg11.dtd"><svg t="1713234267386" class="icon" viewBox="0 0 1024 1024" version="1.1" xmlns="http://www.w3.org/2000/svg" p-id="3448" xmlns:xlink="http://www.w3.org/1999/xlink" width="200" height="200"><path d="M701.952 225.28H322.048a290.1 290.1 0 0 0-290.1 290.304v290.202h670.004a290.202 290.202 0 0 0 290.1-290.202 290.1 290.1 0 0 0-290.1-290.304z" fill="#FFA200" p-id="3449"></path><path d="M196.403 634.163V395.571h77.927q38.912 0 58.47 16.077a57.856 57.856 0 0 1 19.558 47.514 48.435 48.435 0 0 1-9.523 29.593 62.157 62.157 0 0 1-25.395 19.866 55.194 55.194 0 0 1 30.72 20.48 58.88 58.88 0 0 1 10.24 36.25 63.386 63.386 0 0 1-20.48 50.38 85.709 85.709 0 0 1-58.778 18.432z m31.437-136.806h47.514a49.869 49.869 0 0 0 32.972-10.24 34.714 34.714 0 0 0 12.39-28.16 33.792 33.792 0 0 0-11.468-28.877 55.808 55.808 0 0 0-34.918-9.011h-46.49z m0 25.19v85.811h51.917a50.278 50.278 0 0 0 34.713-11.366 40.14 40.14 0 0 0 13.21-31.334q0-43.418-47.411-43.418zM474.112 637.44a77.21 77.21 0 0 1-58.675-23.757 87.86 87.86 0 0 1-22.63-63.283v-5.53a105.78 105.78 0 0 1 10.24-47.104 77.824 77.824 0 0 1 28.16-32.46 70.963 70.963 0 0 1 39.219-11.776 66.56 66.56 0 0 1 53.76 22.835 98.918 98.918 0 0 1 19.148 65.229v12.595H423.117a62.566 62.566 0 0 0 15.36 42.291 48.128 48.128 0 0 0 37.273 16.18 52.224 52.224 0 0 0 27.136-6.554 68.506 68.506 0 0 0 19.354-17.408l18.534 14.438a74.65 74.65 0 0 1-66.662 34.304z m-3.789-158.925a40.96 40.96 0 0 0-30.72 13.312 64.922 64.922 0 0 0-15.36 37.479h88.781v-2.356a57.446 57.446 0 0 0-12.595-35.43 37.786 37.786 0 0 0-30.106-13.005z m149.095-64.614v42.905h33.075v23.45h-33.075v110.08a24.166 24.166 0 0 0 4.403 15.974 18.534 18.534 0 0 0 15.053 5.325 71.68 71.68 0 0 0 14.438-1.945v24.473a89.6 89.6 0 0 1-23.245 3.277 37.58 37.58 0 0 1-30.72-12.288 52.429 52.429 0 0 1-10.24-34.918V480.256h-32.256v-23.45h32.256v-42.905z m177.868 220.262a62.976 62.976 0 0 1-4.198-18.739 67.789 67.789 0 0 1-50.483 22.016 62.771 62.771 0 0 1-43.008-14.848 48.128 48.128 0 0 1-16.794-37.58 49.971 49.971 0 0 1 21.095-43.009 98.816 98.816 0 0 1 59.187-15.36h29.491v-13.926a33.997 33.997 0 0 0-9.523-25.293 37.888 37.888 0 0 0-27.955-9.42 43.725 43.725 0 0 0-27.239 8.191 24.166 24.166 0 0 0-11.059 19.763h-30.72a42.086 42.086 0 0 1 9.42-25.6 65.536 65.536 0 0 1 25.908-19.558 85.606 85.606 0 0 1 35.43-7.27 69.94 69.94 0 0 1 48.026 15.36 55.194 55.194 0 0 1 18.022 42.188v81.92a98.714 98.714 0 0 0 6.554 38.503v2.662z m-49.766-23.142a53.146 53.146 0 0 0 26.522-6.861 44.442 44.442 0 0 0 18.534-19.149v-36.864h-23.757q-55.705 0-55.705 32.563a27.75 27.75 0 0 0 9.523 22.324 36.557 36.557 0 0 0 24.883 7.987z" fill="#FFFFFF" p-id="3450"></path></svg>