<?xml version="1.0" standalone="no"?><!DOCTYPE svg PUBLIC "-//W3C//DTD SVG 1.1//EN" "http://www.w3.org/Graphics/SVG/1.1/DTD/svg11.dtd"><svg t="1713229749535" class="icon" viewBox="0 0 1024 1024" version="1.1" xmlns="http://www.w3.org/2000/svg" p-id="3293" xmlns:xlink="http://www.w3.org/1999/xlink" width="200" height="200"><path d="M915.456 198.656h-281.6c-12.8-76.8-76.8-134.656-159.744-134.656H32.256C12.8 64 0 76.8 0 96.256v614.4C0 768 51.2 819.2 109.056 819.2h806.4c57.856 0 109.056-51.2 109.056-109.056v-409.6c-0.512-57.344-51.712-101.888-109.056-101.888z" fill="#C79B15" p-id="3294"></path><path d="M928.256 960H96.256c-51.2 0-96.256-45.056-96.256-96.256V380.928c0-51.2 45.056-96.256 96.256-96.256h832c51.2 0 96.256 44.544 96.256 96.256v483.328c-0.512 51.2-45.056 95.744-96.256 95.744z" fill="#F5C720" p-id="3295"></path><path d="M494.08 470.528h35.328v152.064h-35.328z" fill="#A0813A" p-id="3296"></path><path d="M762.88 812.032h-35.84v-154.112c0-9.728-8.192-17.92-17.92-17.92H314.368c-9.728 0-17.92 8.192-17.92 17.92v154.112H261.12v-154.112c0-29.184 24.064-53.248 53.248-53.248h394.752c29.184 0 53.248 24.064 53.248 53.248v154.112zM587.776 523.264H436.736c-22.528 0-40.96-18.432-40.96-40.96V388.608c0-22.528 18.432-40.96 40.96-40.96h151.04c22.528 0 40.96 18.432 40.96 40.96v93.184c0 23.04-18.432 41.472-40.96 41.472z" fill="#A0813A" p-id="3297"></path><path d="M820.736 899.584h-151.04c-22.528 0-40.96-18.432-40.96-40.96v-93.184c0-22.528 18.432-40.96 40.96-40.96h151.04c22.528 0 40.96 18.432 40.96 40.96v93.184c0 22.528-18.432 40.96-40.96 40.96zM354.816 899.584H203.776c-22.528 0-40.96-18.432-40.96-40.96v-93.184c0-22.528 18.432-40.96 40.96-40.96h151.04c22.528 0 40.96 18.432 40.96 40.96v93.184c0 22.528-18.432 40.96-40.96 40.96z" fill="#A0813A" p-id="3298"></path></svg>