<svg width="1024" height="1024" xmlns="http://www.w3.org/2000/svg" p-id="1611" version="1.1" class="icon" t="1689663930294">
 <defs>
  <linearGradient spreadMethod="pad" y2="0" x2="0" y1="1" x1="0" id="svg_3">
   <stop offset="0" stop-opacity="0.99609" stop-color="#0368ff"/>
   <stop offset="1" stop-opacity="0.99609" stop-color="#02b7fe"/>
  </linearGradient>
 </defs>
 <g>
  <title>Layer 1</title>
  <path id="svg_1" p-id="1612" fill="url(#svg_3)" d="m85.33333,512.64c0,-224.768 179.62667,-427.30667 427.52,-427.30667c242.34667,0 425.81334,198.69867 425.81334,426.02667c0,263.68 -215.04,427.30667 -426.66667,427.30667c-69.97333,0 -147.62667,-18.77334 -209.92,-55.552c-21.76,-13.22667 -40.10667,-23.04 -63.57333,-15.36l-86.18667,25.6c-21.76,6.82666 -41.38667,-10.24 -34.98667,-33.28l28.58667,-95.744c4.69333,-13.22667 3.84,-27.34934 -2.98667,-38.48534c-36.69333,-67.49866 -57.6,-141.44 -57.6,-213.20533zm371.2,0c0,30.336 24.32,54.69867 54.61334,55.12533c30.29333,0 54.61333,-24.74666 54.61333,-54.69866c0,-30.336 -24.32,-54.69867 -54.61333,-54.69867c-29.86667,-0.42667 -54.61334,24.36267 -54.61334,54.272zm196.69334,0.42667c0,29.90933 24.32,54.69866 54.61333,54.69866c30.29333,0 54.61333,-24.74666 54.61333,-54.69866c0,-30.336 -24.32,-54.69867 -54.61333,-54.69867c-30.29333,0 -54.61333,24.36267 -54.61333,54.69867zm-338.77334,54.69866c-29.86666,0 -54.61333,-24.74666 -54.61333,-54.69866c0,-30.336 24.32,-54.69867 54.61333,-54.69867c30.29334,0 54.61334,24.36267 54.61334,54.69867a55.04,55.04 0 0 1 -54.61334,54.69866z"/>
 </g>
</svg>